<svg width="16" height="16" viewBox="0 0 16 16" fill="none" xmlns="http://www.w3.org/2000/svg">
<g id="basil:comment-solid">
<path id="Vector" d="M8.23992 2.66675C4.38659 2.66675 1.76259 6.57141 3.21593 10.1401L3.83793 11.6654C3.86509 11.7319 3.87003 11.8055 3.85201 11.875C3.83399 11.9446 3.79397 12.0064 3.73793 12.0514L2.42259 13.1067C2.36874 13.15 2.32963 13.2088 2.31067 13.2752C2.29171 13.3416 2.29383 13.4122 2.31673 13.4773C2.33964 13.5425 2.3822 13.5989 2.43854 13.6388C2.49488 13.6787 2.56222 13.7001 2.63126 13.7001H7.84459C8.60917 13.7003 9.3663 13.55 10.0727 13.2575C10.7792 12.9651 11.4211 12.5363 11.9617 11.9957C12.5024 11.4551 12.9312 10.8132 13.2238 10.1068C13.5163 9.40044 13.6668 8.64332 13.6666 7.87875C13.6666 5.00008 11.3333 2.66675 8.45459 2.66675H8.23992Z" fill="#7ED2FF"/>
</g>
</svg>
