<svg width="28" height="31" viewBox="0 0 28 31" fill="none" xmlns="http://www.w3.org/2000/svg">
<g clip-path="url(#clip0_354_1117)">
<path d="M14.0199 15.1634C16.0307 15.1634 17.9592 14.3646 19.381 12.9428C20.8028 11.5209 21.6016 9.59249 21.6016 7.5817C21.6016 5.57091 20.8028 3.64247 19.381 2.22063C17.9592 0.798784 16.0307 0 14.0199 0C12.0091 0 10.0807 0.798784 8.65886 2.22063C7.23701 3.64247 6.43823 5.57091 6.43823 7.5817C6.43823 9.59249 7.23701 11.5209 8.65886 12.9428C10.0807 14.3646 12.0091 15.1634 14.0199 15.1634ZM8.33365 18.433C3.95048 19.7183 0.751953 23.7698 0.751953 28.5676C0.751953 29.539 1.53974 30.3268 2.51114 30.3268H25.5287C26.5001 30.3268 27.2879 29.539 27.2879 28.5676C27.2879 23.7698 24.0894 19.7183 19.7062 18.433V21.442C21.341 21.8625 22.5493 23.3493 22.5493 25.1144V27.4837C22.5493 28.0049 22.1229 28.4314 21.6016 28.4314H20.6539C20.1327 28.4314 19.7062 28.0049 19.7062 27.4837C19.7062 26.9624 20.1327 26.536 20.6539 26.536V25.1144C20.6539 24.066 19.8069 23.219 18.7585 23.219C17.7101 23.219 16.8631 24.066 16.8631 25.1144V26.536C17.3843 26.536 17.8108 26.9624 17.8108 27.4837C17.8108 28.0049 17.3843 28.4314 16.8631 28.4314H15.9154C15.3941 28.4314 14.9676 28.0049 14.9676 27.4837V25.1144C14.9676 23.3493 16.176 21.8625 17.8108 21.442V18.0598C17.4554 18.0243 17.0941 18.0065 16.7268 18.0065H11.313C10.9458 18.0065 10.5845 18.0243 10.2291 18.0598V21.9336C11.5973 22.3423 12.5984 23.6099 12.5984 25.1144C12.5984 26.9447 11.1116 28.4314 9.28137 28.4314C7.4511 28.4314 5.96437 26.9447 5.96437 25.1144C5.96437 23.6099 6.96539 22.3423 8.33365 21.9336V18.433ZM9.28137 26.536C9.65839 26.536 10.02 26.3862 10.2866 26.1196C10.5532 25.853 10.7029 25.4914 10.7029 25.1144C10.7029 24.7374 10.5532 24.3758 10.2866 24.1092C10.02 23.8426 9.65839 23.6928 9.28137 23.6928C8.90434 23.6928 8.54276 23.8426 8.27616 24.1092C8.00957 24.3758 7.8598 24.7374 7.8598 25.1144C7.8598 25.4914 8.00957 25.853 8.27616 26.1196C8.54276 26.3862 8.90434 26.536 9.28137 26.536Z" fill="#005482"/>
</g>
<defs>
<clipPath id="clip0_354_1117">
<rect width="26.5359" height="30.3268" fill="white" transform="translate(0.751953)"/>
</clipPath>
</defs>
</svg>
