<svg width="100" height="100" viewBox="0 0 100 100" fill="none" xmlns="http://www.w3.org/2000/svg">
<path fill-rule="evenodd" clip-rule="evenodd" d="M50.0002 91.6666C26.9877 91.6666 8.3335 73.0124 8.3335 49.9999C8.3335 26.9874 26.9877 8.33325 50.0002 8.33325C73.0127 8.33325 91.6669 26.9874 91.6669 49.9999C91.6669 73.0124 73.0127 91.6666 50.0002 91.6666ZM50.0002 86.6666C59.7248 86.6666 69.0511 82.8035 75.9274 75.9272C82.8038 69.0509 86.6668 59.7245 86.6668 49.9999C86.6668 40.2753 82.8038 30.949 75.9274 24.0727C69.0511 17.1963 59.7248 13.3333 50.0002 13.3333C40.2756 13.3333 30.9493 17.1963 24.0729 24.0727C17.1966 30.949 13.3335 40.2753 13.3335 49.9999C13.3335 59.7245 17.1966 69.0509 24.0729 75.9272C30.9493 82.8035 40.2756 86.6666 50.0002 86.6666ZM45.1168 60.6583L69.321 36.4583L72.8544 39.9958L48.0627 64.7874C47.2813 65.5686 46.2217 66.0074 45.1168 66.0074C44.012 66.0074 42.9524 65.5686 42.171 64.7874L29.1668 51.7749L32.7043 48.2374L45.121 60.6541L45.1168 60.6583Z" fill="#116D62"/>
</svg>
