<svg width="24" height="24" viewBox="0 0 24 24" fill="none" xmlns="http://www.w3.org/2000/svg">
<path d="M6 7.00012H5C4.46957 7.00012 3.96086 7.21084 3.58579 7.58591C3.21071 7.96098 3 8.46969 3 9.00012V18.0001C3 18.5306 3.21071 19.0393 3.58579 19.4143C3.96086 19.7894 4.46957 20.0001 5 20.0001H14C14.5304 20.0001 15.0391 19.7894 15.4142 19.4143C15.7893 19.0393 16 18.5306 16 18.0001V17.0001" stroke="#08325B" stroke-width="2" stroke-linecap="round" stroke-linejoin="round"/>
<path d="M15 5.00011L18 8.00011M19.385 6.58511C19.7788 6.19126 20.0001 5.65709 20.0001 5.10011C20.0001 4.54312 19.7788 4.00895 19.385 3.61511C18.9912 3.22126 18.457 3 17.9 3C17.343 3 16.8088 3.22126 16.415 3.61511L8 12.0001V15.0001H11L19.385 6.58511Z" stroke="#08325B" stroke-width="2" stroke-linecap="round" stroke-linejoin="round"/>
</svg>
