<svg width="31" height="31" viewBox="0 0 31 31" fill="none" xmlns="http://www.w3.org/2000/svg">
<path d="M11.3812 8.21343C11.3812 7.63264 11.4956 7.05753 11.7178 6.52095C11.9401 5.98437 12.2659 5.49682 12.6765 5.08614C13.0872 4.67546 13.5748 4.34969 14.1113 4.12743C14.6479 3.90517 15.223 3.79077 15.8038 3.79077C16.3846 3.79077 16.9597 3.90517 17.4963 4.12743C18.0329 4.34969 18.5204 4.67546 18.9311 5.08614C19.3418 5.49682 19.6676 5.98437 19.8898 6.52095C20.1121 7.05753 20.2265 7.63264 20.2265 8.21343C20.2265 9.38639 19.7605 10.5113 18.9311 11.3407C18.1017 12.1701 16.9768 12.6361 15.8038 12.6361C14.6309 12.6361 13.5059 12.1701 12.6765 11.3407C11.8471 10.5113 11.3812 9.38639 11.3812 8.21343ZM6.3267 13.8997C7.16453 13.8997 7.96805 13.5669 8.56048 12.9744C9.15292 12.382 9.48574 11.5785 9.48574 10.7407C9.48574 9.90283 9.15292 9.09932 8.56048 8.50688C7.96805 7.91445 7.16453 7.58162 6.3267 7.58162C5.48887 7.58162 4.68536 7.91445 4.09292 8.50688C3.50049 9.09932 3.16766 9.90283 3.16766 10.7407C3.16766 11.5785 3.50049 12.382 4.09292 12.9744C4.68536 13.5669 5.48887 13.8997 6.3267 13.8997ZM28.44 10.7407C28.44 11.5785 28.1072 12.382 27.5147 12.9744C26.9223 13.5669 26.1188 13.8997 25.281 13.8997C24.4431 13.8997 23.6396 13.5669 23.0472 12.9744C22.4547 12.382 22.1219 11.5785 22.1219 10.7407C22.1219 9.90283 22.4547 9.09932 23.0472 8.50688C23.6396 7.91445 24.4431 7.58162 25.281 7.58162C26.1188 7.58162 26.9223 7.91445 27.5147 8.50688C28.1072 9.09932 28.44 9.90283 28.44 10.7407ZM13.9084 15.1633C12.1646 15.1633 10.7494 16.5786 10.7494 18.3224V21.4814C10.7494 22.8219 11.2819 24.1076 12.2298 25.0555C13.1777 26.0033 14.4633 26.5359 15.8038 26.5359C17.1444 26.5359 18.43 26.0033 19.3779 25.0555C20.3258 24.1076 20.8583 22.8219 20.8583 21.4814V18.3224C20.8583 16.5786 19.443 15.1633 17.6993 15.1633H13.9084ZM8.22213 18.3224C8.22213 17.592 8.3586 16.8945 8.61132 16.2551L5.5003 17.0891C4.69148 17.3059 4.00184 17.8349 3.58293 18.56C3.16401 19.285 3.0501 20.1467 3.26622 20.9557L3.75651 22.788C3.92835 23.4292 4.22483 24.0303 4.62902 24.557C5.0332 25.0836 5.53717 25.5255 6.11214 25.8573C6.68712 26.1891 7.32183 26.4045 7.98003 26.491C8.63824 26.5775 9.30703 26.5335 9.94823 26.3615L9.99119 26.3489C8.84846 24.9843 8.22221 23.2612 8.22213 21.4814V18.3224ZM23.3855 21.4814C23.3855 23.3339 22.7209 25.0322 21.6165 26.3514L21.6569 26.3615C22.9515 26.7081 24.3308 26.5263 25.4914 25.8562C26.652 25.1861 27.499 24.0825 27.8461 22.788L28.3364 20.9557C28.5525 20.1467 28.4386 19.285 28.0197 18.56C27.6008 17.8349 26.9111 17.3059 26.1023 17.0891L22.9989 16.2551C23.2491 16.897 23.3855 17.5945 23.3855 18.3224V21.4814Z" fill="#005482"/>
</svg>
