<svg width="59" height="59" viewBox="0 0 59 59" fill="none" xmlns="http://www.w3.org/2000/svg">
<path fill-rule="evenodd" clip-rule="evenodd" d="M34.4165 54.0834H24.5832C15.3128 54.0834 10.6764 54.0834 7.79767 51.2022C4.91896 48.3211 4.9165 43.6871 4.9165 34.4167V24.5834C4.9165 15.313 4.9165 10.6766 7.79767 7.79791C10.6788 4.91921 15.3374 4.91675 24.6569 4.91675C26.1467 4.91675 27.339 4.91675 28.3444 4.95854C28.3116 5.15521 28.2953 5.35515 28.2953 5.55837L28.2707 12.5253C28.2707 15.2221 28.2707 17.6067 28.5288 19.5266C28.809 21.6088 29.4507 23.691 31.1518 25.3922C32.8481 27.0885 34.9328 27.7325 37.015 28.0128C38.9349 28.2709 41.3195 28.2709 44.0163 28.2709H53.9775C54.0832 29.5837 54.0832 31.1963 54.0832 33.3425V34.4167C54.0832 43.6871 54.0832 48.3235 51.202 51.2022C48.3208 54.081 43.6869 54.0834 34.4165 54.0834Z" fill="#116D62"/>
<path d="M47.5738 18.7251L37.8388 9.96606C35.0683 7.47085 33.6842 6.22201 31.9806 5.57056L31.9585 12.2916C31.9585 18.0859 31.9585 20.9843 33.758 22.7838C35.5575 24.5833 38.4559 24.5833 44.2502 24.5833H53.051C52.1611 22.8526 50.5632 21.417 47.5738 18.7251Z" fill="#116D62"/>
</svg>
