<svg width="33" height="33" viewBox="0 0 33 33" fill="none" xmlns="http://www.w3.org/2000/svg">
<path d="M16.1374 2.6853C14.3742 2.6853 12.6284 3.03257 10.9995 3.70729C9.37056 4.38201 7.8905 5.37095 6.64379 6.61767C4.12594 9.13552 2.71143 12.5505 2.71143 16.1112C2.71143 19.672 4.12594 23.0869 6.64379 25.6048C7.8905 26.8515 9.37056 27.8405 10.9995 28.5152C12.6284 29.1899 14.3742 29.5372 16.1374 29.5372C19.6981 29.5372 23.1131 28.1226 25.6309 25.6048C28.1488 23.0869 29.5633 19.672 29.5633 16.1112C29.5633 14.3481 29.216 12.6023 28.5413 10.9733C27.8666 9.34444 26.8776 7.86438 25.6309 6.61767C24.3842 5.37095 22.9041 4.38201 21.2752 3.70729C19.6463 3.03257 17.9005 2.6853 16.1374 2.6853ZM21.7762 21.7501L14.7948 17.4538V9.39827H16.8086V16.3797L22.8503 20.0047L21.7762 21.7501Z" fill="#005482"/>
</svg>
