<svg width="28" height="23" viewBox="0 0 28 23" fill="none" xmlns="http://www.w3.org/2000/svg">
<path d="M3.3252 1.00879C3.66842 0.974167 4.01444 1.04177 4.31934 1.20312L4.46875 1.29199L4.4707 1.29297L6.7207 2.79492L6.74414 2.81055L6.87793 2.91602C7.13359 3.13761 7.31941 3.42879 7.41309 3.75391L7.45215 3.91992L7.47559 4.08789C7.49158 4.27316 7.47564 4.45845 7.43359 4.6377C7.74112 4.14669 8.10331 3.68676 8.51953 3.27051L8.79883 3.00586C10.2205 1.71862 12.0731 1.00098 14 1.00098C16.0554 1.00098 18.0271 1.8171 19.4805 3.27051L19.7451 3.54883C20.0525 3.8883 20.325 4.2539 20.5654 4.6377C20.5107 4.40422 20.5034 4.16009 20.5479 3.91992L20.5869 3.75391C20.6962 3.37443 20.931 3.0409 21.2559 2.81055L21.2676 2.80273L21.2803 2.79492L23.5303 1.29492L23.542 1.28613L23.5547 1.27832C23.8926 1.06732 24.2911 0.978822 24.6836 1.02441L24.8506 1.05176L25.0146 1.0957C25.3374 1.19889 25.6237 1.39367 25.8379 1.65625L25.9385 1.79297L26.0254 1.93848C26.1849 2.23712 26.2547 2.5758 26.2256 2.91309L26.2021 3.08203C26.1191 3.52947 25.8654 3.92717 25.4941 4.19043L25.4824 4.19824L25.4697 4.20703L23.208 5.71484L23.1953 5.72266C22.8573 5.93366 22.4589 6.02216 22.0664 5.97656L21.8994 5.94922C21.5609 5.87615 21.2541 5.7045 21.0156 5.45996C21.3354 6.14178 21.5553 6.86885 21.666 7.61914C21.6968 7.58281 21.7288 7.54663 21.7627 7.5127L21.8906 7.39648C22.202 7.14135 22.5939 7.00098 23 7.00098H25.25C25.6561 7.00098 26.048 7.14135 26.3594 7.39648L26.4873 7.5127L26.6035 7.6416C26.8587 7.95301 27 8.34485 27 8.75098C26.9999 9.21497 26.8154 9.66018 26.4873 9.98828C26.1591 10.3164 25.714 10.501 25.25 10.501H23C22.536 10.501 22.0909 10.3164 21.7627 9.98828C21.7582 9.98378 21.7544 9.97818 21.75 9.97363V12.1572L23.125 15.6025V15.6035L23.1914 15.8057C23.2276 15.9431 23.2471 16.0844 23.249 16.2266L23.2393 16.4395C23.2161 16.6526 23.1539 16.8591 23.0566 17.0488L22.9482 17.2324C22.8281 17.4097 22.6765 17.5625 22.502 17.6846L22.3203 17.7959C22.0681 17.9299 21.7866 18.0007 21.501 18.001H18.0674L17.874 18.751C17.6523 19.6095 17.1512 20.3701 16.4502 20.9131C15.8366 21.3882 15.0998 21.6736 14.3311 21.7373L14 21.751C13.224 21.7511 12.4671 21.5256 11.8203 21.1055L11.5498 20.9131C10.8488 20.3701 10.3477 19.6095 10.126 18.751L9.93262 18.001H6.5C6.21399 18.0009 5.9323 17.93 5.67969 17.7959C5.49014 17.6952 5.32087 17.5613 5.18066 17.4004L5.05078 17.2314C4.89059 16.9946 4.7903 16.7218 4.75977 16.4375C4.72933 16.1535 4.76893 15.8658 4.875 15.6006L6.25 12.1592V9.97363C6.24555 9.97818 6.2418 9.98378 6.2373 9.98828C5.90914 10.3163 5.46404 10.501 5 10.501H2.75C2.28596 10.501 1.84086 10.3163 1.5127 9.98828C1.2256 9.70118 1.04862 9.32434 1.00879 8.92383L1 8.75098L1.00879 8.57715C1.04866 8.17672 1.22565 7.79974 1.5127 7.5127L1.64062 7.39648C1.95203 7.14135 2.3439 7.00098 2.75 7.00098H5C5.4061 7.00098 5.79797 7.14135 6.10938 7.39648L6.2373 7.5127L6.33301 7.61914C6.44371 6.86894 6.66368 6.14172 6.9834 5.45996C6.78409 5.66418 6.53791 5.81791 6.26465 5.90527L6.10059 5.94922C5.65572 6.04514 5.19073 5.96367 4.80469 5.72266L4.79199 5.71484L2.53027 4.20703C2.1926 3.98198 1.94488 3.64736 1.82715 3.2627L1.78418 3.09473C1.69298 2.64001 1.78616 2.16742 2.04297 1.78125V1.78223C2.29968 1.39566 2.69945 1.12607 3.1543 1.03418L3.3252 1.00879Z" fill="#08325B" stroke="white" stroke-width="2"/>
</svg>
