<svg width="66" height="80" viewBox="0 0 66 80" fill="none" xmlns="http://www.w3.org/2000/svg">
<path d="M19.3771 52.12C20.1471 51.7066 20.9886 51.31 21.9016 50.93C21.1295 51.9748 20.3036 52.9859 19.4266 53.96C17.8866 55.645 16.6876 56.54 15.9341 56.82L15.7416 56.88C15.6871 56.8105 15.6393 56.7369 15.5986 56.66C15.2906 56.11 15.3016 55.58 15.8186 54.86C16.4016 54.035 17.5731 53.09 19.3771 52.12ZM32.8796 43.885C32.2269 44.0083 31.5742 44.1383 30.9216 44.275C31.8914 42.5484 32.8084 40.7977 33.6716 39.025C34.5407 40.4897 35.4765 41.921 36.4766 43.315C35.2812 43.475 34.0822 43.665 32.8796 43.885ZM46.7671 48.58C45.9144 47.9518 45.1147 47.2666 44.3746 46.53C45.6359 46.5533 46.7579 46.6433 47.7406 46.8C49.4841 47.085 50.3036 47.535 50.5896 47.845C50.6775 47.9328 50.7282 48.0463 50.7326 48.165C50.7124 48.5176 50.5992 48.8605 50.4026 49.165C50.2932 49.4094 50.1149 49.6232 49.8856 49.785C49.7733 49.8511 49.6384 49.8778 49.5061 49.86C49.0111 49.845 48.0871 49.53 46.7671 48.58ZM34.5296 24.85C34.3096 26.07 33.9356 27.47 33.4296 28.995C33.2438 28.4238 33.0805 27.8468 32.9401 27.265C32.5221 25.5 32.4616 24.115 32.6871 23.155C32.8961 22.27 33.2921 21.915 33.7651 21.74C34.0183 21.6371 34.2872 21.5697 34.5626 21.54C34.6341 21.69 34.7166 22 34.7386 22.53C34.7679 23.14 34.6982 23.915 34.5296 24.855V24.85Z" fill="#08325B"/>
<path fill-rule="evenodd" clip-rule="evenodd" d="M11 0H55C57.9174 0 60.7153 1.05357 62.7782 2.92893C64.8411 4.8043 66 7.34784 66 10V70C66 72.6522 64.8411 75.1957 62.7782 77.0711C60.7153 78.9464 57.9174 80 55 80H11C8.08262 80 5.28473 78.9464 3.22182 77.0711C1.15892 75.1957 0 72.6522 0 70V10C0 7.34784 1.15892 4.8043 3.22182 2.92893C5.28473 1.05357 8.08262 0 11 0ZM11.9075 58.34C12.4025 59.24 13.1725 60.055 14.3165 60.435C15.455 60.81 16.5825 60.635 17.5065 60.285C19.2555 59.635 20.999 58.105 22.5995 56.355C24.431 54.35 26.356 51.72 28.215 48.805C31.8036 47.8367 35.4789 47.1574 39.1985 46.775C40.8485 48.69 42.5535 50.34 44.2035 51.525C45.7435 52.625 47.52 53.54 49.3405 53.61C50.332 53.6533 51.3133 53.4119 52.1455 52.92C52.998 52.415 53.6305 51.685 54.0925 50.84C54.5875 49.935 54.89 48.99 54.8515 48.025C54.8184 47.0733 54.4305 46.16 53.7515 45.435C52.5085 44.085 50.4735 43.435 48.4715 43.11C46.0428 42.7698 43.5789 42.686 41.129 42.86C39.0613 40.2006 37.2576 37.3795 35.739 34.43C37.114 31.13 38.1425 28.01 38.599 25.46C38.797 24.37 38.9015 23.33 38.863 22.39C38.8558 21.457 38.617 20.5375 38.1645 19.7C37.9036 19.2379 37.5328 18.8344 37.079 18.5187C36.6252 18.203 36.0999 17.9832 35.541 17.875C34.43 17.66 33.286 17.875 32.2355 18.26C30.162 19.01 29.0675 20.61 28.655 22.375C28.2535 24.075 28.435 26.055 28.908 28.055C29.392 30.085 30.217 32.295 31.273 34.53C29.5799 38.3474 27.6292 42.0662 25.432 45.665C22.5981 46.4771 19.866 47.558 17.281 48.89C15.246 49.99 13.4365 51.29 12.3475 52.825C11.1925 54.455 10.835 56.395 11.9075 58.34Z" fill="#08325B"/>
</svg>
