<svg width="14" height="14" viewBox="0 0 14 14" fill="none" xmlns="http://www.w3.org/2000/svg">
<g id="stash:save-ribbon-light">
<path id="Vector" d="M3.5 3.61667C3.5 2.96333 3.5 2.63667 3.62717 2.387C3.73902 2.16749 3.91749 1.98902 4.137 1.87717C4.38667 1.75 4.71333 1.75 5.36667 1.75H8.63333C9.28667 1.75 9.61333 1.75 9.863 1.87717C10.0825 1.98902 10.261 2.16749 10.3728 2.387C10.5 2.63667 10.5 2.96333 10.5 3.61667V11.3779C10.5 11.6614 10.5 11.8032 10.4411 11.8807C10.4156 11.9145 10.3831 11.9423 10.3459 11.9622C10.3086 11.9822 10.2674 11.9938 10.2252 11.9963C10.1278 12.0021 10.01 11.9233 9.77433 11.7664L7 9.91667L4.22567 11.7658C3.99 11.9233 3.87217 12.0021 3.77417 11.9963C3.73207 11.9937 3.69103 11.9821 3.65387 11.9621C3.61671 11.9422 3.58431 11.9144 3.55892 11.8807C3.5 11.8032 3.5 11.6614 3.5 11.3779V3.61667Z" fill="#7ED2FF" stroke="#7ED2FF" stroke-linecap="round" stroke-linejoin="round"/>
</g>
</svg>
