<svg width="25" height="25" viewBox="0 0 25 25" fill="none" xmlns="http://www.w3.org/2000/svg">
<path d="M7.8125 1.5625H17.1875C18.0163 1.5625 18.8112 1.89174 19.3972 2.47779C19.9833 3.06384 20.3125 3.8587 20.3125 4.6875V19.5266C20.3125 19.7338 20.2302 19.9325 20.0837 20.079C19.9372 20.2255 19.7385 20.3078 19.5312 20.3078H6.25V20.3125C6.25 20.7269 6.41462 21.1243 6.70765 21.4174C7.00067 21.7104 7.3981 21.875 7.8125 21.875H19.5312C19.7385 21.875 19.9372 21.9573 20.0837 22.1038C20.2302 22.2503 20.3125 22.449 20.3125 22.6562C20.3125 22.8635 20.2302 23.0622 20.0837 23.2087C19.9372 23.3552 19.7385 23.4375 19.5312 23.4375H7.8125C6.9837 23.4375 6.18884 23.1083 5.60279 22.5222C5.01674 21.9362 4.6875 21.1413 4.6875 20.3125V4.6875C4.6875 3.8587 5.01674 3.06384 5.60279 2.47779C6.18884 1.89174 6.9837 1.5625 7.8125 1.5625ZM9.375 9.36875H10.3141L9.96875 10.9375H8.59375C8.38655 10.9375 8.18784 11.0198 8.04132 11.1663C7.89481 11.3128 7.8125 11.5115 7.8125 11.7188C7.8125 11.926 7.89481 12.1247 8.04132 12.2712C8.18784 12.4177 8.38655 12.5 8.59375 12.5H9.62187L9.4 13.4984C9.35524 13.7009 9.39274 13.9128 9.50424 14.0876C9.61573 14.2624 9.7921 14.3857 9.99453 14.4305C10.197 14.4752 10.4089 14.4377 10.5837 14.3262C10.7585 14.2147 10.8818 14.0384 10.9266 13.8359L11.2219 12.5H12.7359L12.5125 13.4969C12.4901 13.597 12.4877 13.7006 12.5054 13.8016C12.523 13.9027 12.5604 13.9993 12.6154 14.0859C12.6704 14.1725 12.7419 14.2475 12.8259 14.3065C12.9098 14.3655 13.0046 14.4073 13.1047 14.4297C13.2048 14.4521 13.3084 14.4545 13.4094 14.4368C13.5105 14.4192 13.6071 14.3818 13.6937 14.3268C13.7804 14.2718 13.8553 14.2003 13.9143 14.1163C13.9733 14.0324 14.0151 13.9376 14.0375 13.8375L14.3359 12.5H15.625C15.8322 12.5 16.0309 12.4177 16.1774 12.2712C16.3239 12.1247 16.4062 11.926 16.4062 11.7188C16.4062 11.5115 16.3239 11.3128 16.1774 11.1663C16.0309 11.0198 15.8322 10.9375 15.625 10.9375H14.6844L15.0359 9.36875H16.4062C16.6135 9.36875 16.8122 9.28644 16.9587 9.13993C17.1052 8.99341 17.1875 8.7947 17.1875 8.5875C17.1875 8.3803 17.1052 8.18159 16.9587 8.03507C16.8122 7.88856 16.6135 7.80625 16.4062 7.80625H15.3844L15.6047 6.81563C15.6271 6.71549 15.6295 6.61193 15.6118 6.51086C15.5942 6.4098 15.5568 6.31319 15.5018 6.22657C15.4468 6.13995 15.3753 6.06501 15.2913 6.00603C15.2074 5.94705 15.1126 5.90518 15.0125 5.88281C14.9124 5.86045 14.8088 5.85802 14.7077 5.87568C14.6067 5.89333 14.5101 5.93072 14.4234 5.98571C14.2485 6.09677 14.1249 6.27277 14.0797 6.475L13.7828 7.80625H12.2609L12.4797 6.81406C12.5181 6.61428 12.4771 6.40737 12.3654 6.23736C12.2536 6.06734 12.08 5.94762 11.8813 5.90366C11.6827 5.8597 11.4747 5.89496 11.3017 6.00195C11.1286 6.10894 11.0041 6.27921 10.9547 6.47656L10.6609 7.80469H9.375C9.1678 7.80469 8.96909 7.887 8.82257 8.03351C8.67606 8.18002 8.59375 8.37874 8.59375 8.58594C8.59375 8.79314 8.67606 8.99185 8.82257 9.13836C8.96909 9.28488 9.1678 9.36875 9.375 9.36875ZM11.5672 10.9375H13.0828L13.4344 9.36875H11.9156L11.5672 10.9375Z" fill="#08325B"/>
</svg>
