<svg width="25" height="27" viewBox="0 0 25 27" fill="none" xmlns="http://www.w3.org/2000/svg">
<path d="M10.9823 26.4166C10.4011 26.4166 9.90077 26.2229 9.48141 25.8354C9.06205 25.4479 8.80888 24.9743 8.72191 24.4146L8.43129 22.2833C8.15142 22.1757 7.88792 22.0465 7.64079 21.8958C7.39365 21.7451 7.15124 21.5837 6.91358 21.4114L4.91149 22.251C4.3733 22.4878 3.83511 22.5094 3.29691 22.3156C2.75872 22.1219 2.33892 21.7774 2.03754 21.2823L0.519827 18.6344C0.218438 18.1392 0.132328 17.6118 0.261494 17.0521C0.390661 16.4923 0.681286 16.0295 1.13337 15.6635L2.84483 14.3719C2.8233 14.2212 2.81254 14.0756 2.81254 13.9353V13.0634C2.81254 12.9239 2.8233 12.7788 2.84483 12.6281L1.13337 11.3364C0.681286 10.9705 0.390661 10.5076 0.261494 9.9479C0.132328 9.38818 0.218438 8.86074 0.519827 8.3656L2.03754 5.71769C2.33892 5.22255 2.75872 4.87811 3.29691 4.68436C3.83511 4.49061 4.3733 4.51213 4.91149 4.74894L6.91358 5.58852C7.15038 5.4163 7.39795 5.25484 7.65629 5.10415C7.91462 4.95345 8.17295 4.82429 8.43129 4.71665L8.72191 2.5854C8.80802 2.02567 9.06119 1.55206 9.48141 1.16456C9.90163 0.777063 10.4019 0.583313 10.9823 0.583313H14.0177C14.599 0.583313 15.0997 0.777063 15.52 1.16456C15.9402 1.55206 16.1929 2.02567 16.2782 2.5854L16.5688 4.71665C16.8486 4.82429 17.1126 4.95345 17.3606 5.10415C17.6086 5.25484 17.8505 5.4163 18.0865 5.58852L20.0886 4.74894C20.6268 4.51213 21.165 4.49061 21.7032 4.68436C22.2414 4.87811 22.6611 5.22255 22.9625 5.71769L24.4802 8.3656C24.7816 8.86074 24.8677 9.38818 24.7386 9.9479C24.6094 10.5076 24.3188 10.9705 23.8667 11.3364L22.1552 12.6281C22.1768 12.7788 22.1875 12.9243 22.1875 13.0647V13.9353C22.1875 14.0756 22.166 14.2212 22.123 14.3719L23.8344 15.6635C24.2865 16.0295 24.5771 16.4923 24.7063 17.0521C24.8355 17.6118 24.7493 18.1392 24.448 18.6344L22.898 21.2823C22.5966 21.7774 22.1768 22.1219 21.6386 22.3156C21.1004 22.5094 20.5622 22.4878 20.024 22.251L18.0865 21.4114C17.8497 21.5837 17.6021 21.7451 17.3438 21.8958C17.0855 22.0465 16.8271 22.1757 16.5688 22.2833L16.2782 24.4146C16.192 24.9743 15.9393 25.4479 15.52 25.8354C15.1006 26.2229 14.5999 26.4166 14.0177 26.4166H10.9823ZM12.5646 18.0208C13.8132 18.0208 14.8789 17.5795 15.7615 16.6969C16.6441 15.8142 17.0855 14.7486 17.0855 13.5C17.0855 12.2514 16.6441 11.1857 15.7615 10.3031C14.8789 9.42047 13.8132 8.97915 12.5646 8.97915C11.2945 8.97915 10.2233 9.42047 9.35095 10.3031C8.47865 11.1857 8.04292 12.2514 8.04379 13.5C8.04465 14.7486 8.4808 15.8142 9.35224 16.6969C10.2237 17.5795 11.2945 18.0208 12.5646 18.0208Z" fill="#08325B"/>
</svg>
