<svg width="50" height="38" viewBox="0 0 50 38" fill="none" xmlns="http://www.w3.org/2000/svg">
<path d="M26.8292 37.978V27.3163H33.9371L25.0523 16.6545L16.1675 27.3163H23.2753V37.978H14.3905V37.8892C14.092 37.907 13.8076 37.978 13.502 37.978C9.96742 37.978 6.57759 36.5739 4.07825 34.0746C1.57892 31.5753 0.174805 28.1854 0.174805 24.6508C0.174805 17.8131 5.34576 12.2405 11.9809 11.4764C12.5627 8.43534 14.186 5.692 16.5716 3.71826C18.9572 1.74452 21.956 0.663763 25.0523 0.661865C28.1489 0.663577 31.1483 1.74419 33.5345 3.71789C35.9207 5.69159 37.5447 8.43503 38.1271 11.4764C44.7623 12.2405 49.9262 17.8131 49.9262 24.6508C49.9262 28.1854 48.522 31.5753 46.0227 34.0746C43.5234 36.5739 40.1335 37.978 36.5989 37.978C36.3004 37.978 36.0125 37.907 35.7105 37.8892V37.978H26.8292Z" fill="#005482"/>
</svg>
